HIERARCHY
ROOT Root
{
  OFFSET 0.0 0.0 0.0
  CHANNELS 6 Xposition Yposition Zposition Zrotation Yrotation Xrotation
  JOINT Hips
  {
    OFFSET 0.0 100.0 0.0
    CHANNELS 6 Xposition Yposition Zposition Zrotation Yrotation Xrotation
    JOINT Spine1
    {
      OFFSET 5.003913 -0.037094 -0.013727
      CHANNELS 3 Zrotation Yrotation Xrotation
      JOINT Spine2
      {
        OFFSET 7.125363 -1e-06 0.0
        CHANNELS 3 Zrotation Yrotation Xrotation
        JOINT Chest
        {
          OFFSET 7.594027 1e-06 0.0
          CHANNELS 3 Zrotation Yrotation Xrotation
          JOINT Neck1
          {
            OFFSET 26.313086 -0.460272 -0.181672
            CHANNELS 3 Zrotation Yrotation Xrotation
            JOINT Neck2
            {
              OFFSET 8.045911 0.0 0.0
              CHANNELS 3 Zrotation Yrotation Xrotation
              JOINT Head
              {
                OFFSET 6.432774 0.0 0.0
                CHANNELS 3 Zrotation Yrotation Xrotation
                JOINT HeadEnd
                {
                  OFFSET 16.169773 0.06451 0.00362
                  CHANNELS 3 Zrotation Yrotation Xrotation
                }
                JOINT Jaw
                {
                  OFFSET 0.108741 3.12938 0.002639
                  CHANNELS 3 Zrotation Yrotation Xrotation
                }
                JOINT LeftEye
                {
                  OFFSET 4.45173 8.166359 3.206392
                  CHANNELS 3 Zrotation Yrotation Xrotation
                }
                JOINT RightEye
                {
                  OFFSET 4.436895 8.135758 -3.222429
                  CHANNELS 3 Zrotation Yrotation Xrotation
                }
              }
            }
          }
          JOINT LeftShoulder
          {
            OFFSET 23.218927 5.195579 1.621656
            CHANNELS 3 Zrotation Yrotation Xrotation
            JOINT LeftArm
            {
              OFFSET 15.902118 2e-06 -2e-06
              CHANNELS 3 Zrotation Yrotation Xrotation
              JOINT LeftForeArm
              {
                OFFSET 28.739307 0.0 -1e-06
                CHANNELS 3 Zrotation Yrotation Xrotation
                JOINT LeftHand
                {
                  OFFSET 27.093981 -4e-06 0.0
                  CHANNELS 3 Zrotation Yrotation Xrotation
                  JOINT LeftHandThumb1
                  {
                    OFFSET 2.276781 3.380274 0.83384
                    CHANNELS 3 Zrotation Yrotation Xrotation
                    JOINT LeftHandThumb2
                    {
                      OFFSET 4.705309 -1e-06 -1e-06
                      CHANNELS 3 Zrotation Yrotation Xrotation
                      JOINT LeftHandThumb3
                      {
                        OFFSET 2.798515 0.0 3e-06
                        CHANNELS 3 Zrotation Yrotation Xrotation
                        JOINT LeftHandThumbEnd
                        {
                          OFFSET 3.180793 4e-06 -4e-06
                          CHANNELS 3 Zrotation Yrotation Xrotation
                        }
                      }
                    }
                  }
                  JOINT LeftHandIndex1
                  {
                    OFFSET 3.247786 2.352677 0.137192
                    CHANNELS 3 Zrotation Yrotation Xrotation
                    JOINT LeftHandIndex2
                    {
                      OFFSET 6.367095 1e-06 0.0
                      CHANNELS 3 Zrotation Yrotation Xrotation
                      JOINT LeftHandIndex3
                      {
                        OFFSET 3.662364 0.0 0.0
                        CHANNELS 3 Zrotation Yrotation Xrotation
                        JOINT LeftHandIndex4
                        {
                          OFFSET 2.329242 4e-06 -4e-06
                          CHANNELS 3 Zrotation Yrotation Xrotation
                          JOINT LeftHandIndexEnd
                          {
                            OFFSET 2.767823 1e-06 0.0
                            CHANNELS 3 Zrotation Yrotation Xrotation
                          }
                        }
                      }
                    }
                  }
                  JOINT LeftHandMiddle1
                  {
                    OFFSET 3.163612 0.945023 -0.406112
                    CHANNELS 3 Zrotation Yrotation Xrotation
                    JOINT LeftHandMiddle2
                    {
                      OFFSET 6.276789 3e-06 0.0
                      CHANNELS 3 Zrotation Yrotation Xrotation
                      JOINT LeftHandMiddle3
                      {
                        OFFSET 4.35652 -1e-06 4e-06
                        CHANNELS 3 Zrotation Yrotation Xrotation
                        JOINT LeftHandMiddle4
                        {
                          OFFSET 2.996877 0.0 8e-06
                          CHANNELS 3 Zrotation Yrotation Xrotation
                          JOINT LeftHandMiddleEnd
                          {
                            OFFSET 2.323256 3e-06 -4e-06
                            CHANNELS 3 Zrotation Yrotation Xrotation
                          }
                        }
                      }
                    }
                  }
                  JOINT LeftHandRing1
                  {
                    OFFSET 2.882606 -0.309162 0.107445
                    CHANNELS 3 Zrotation Yrotation Xrotation
                    JOINT LeftHandRing2
                    {
                      OFFSET 6.033198 0.0 4e-06
                      CHANNELS 3 Zrotation Yrotation Xrotation
                      JOINT LeftHandRing3
                      {
                        OFFSET 4.350578 3e-06 0.0
                        CHANNELS 3 Zrotation Yrotation Xrotation
                        JOINT LeftHandRing4
                        {
                          OFFSET 2.651321 2e-06 -7e-06
                          CHANNELS 3 Zrotation Yrotation Xrotation
                          JOINT LeftHandRingEnd
                          {
                            OFFSET 1.937663 1e-06 -4e-06
                            CHANNELS 3 Zrotation Yrotation Xrotation
                          }
                        }
                      }
                    }
                  }
                  JOINT LeftHandPinky1
                  {
                    OFFSET 2.865315 -1.525436 0.575687
                    CHANNELS 3 Zrotation Yrotation Xrotation
                    JOINT LeftHandPinky2
                    {
                      OFFSET 5.54936 1e-06 -8e-06
                      CHANNELS 3 Zrotation Yrotation Xrotation
                      JOINT LeftHandPinky3
                      {
                        OFFSET 3.070974 0.0 -4e-06
                        CHANNELS 3 Zrotation Yrotation Xrotation
                        JOINT LeftHandPinky4
                        {
                          OFFSET 1.549672 1e-06 0.0
                          CHANNELS 3 Zrotation Yrotation Xrotation
                          JOINT LeftHandPinkyEnd
                          {
                            OFFSET 1.952123 0.0 0.0
                            CHANNELS 3 Zrotation Yrotation Xrotation
                          }
                        }
                      }
                    }
                  }
                }
              }
            }
          }
          JOINT RightShoulder
          {
            OFFSET 23.161716 5.296122 -1.380114
            CHANNELS 3 Zrotation Yrotation Xrotation
            JOINT RightArm
            {
              OFFSET -16.027195 -2e-06 1.1e-05
              CHANNELS 3 Zrotation Yrotation Xrotation
              JOINT RightForeArm
              {
                OFFSET -28.736639 4e-06 2e-06
                CHANNELS 3 Zrotation Yrotation Xrotation
                JOINT RightHand
                {
                  OFFSET -27.133619 6e-06 0.0
                  CHANNELS 3 Zrotation Yrotation Xrotation
                  JOINT RightHandThumb1
                  {
                    OFFSET -2.274328 -3.351035 -0.83067
                    CHANNELS 3 Zrotation Yrotation Xrotation
                    JOINT RightHandThumb2
                    {
                      OFFSET -4.703594 -3e-06 2e-06
                      CHANNELS 3 Zrotation Yrotation Xrotation
                      JOINT RightHandThumb3
                      {
                        OFFSET -2.794935 -4e-06 -3e-06
                        CHANNELS 3 Zrotation Yrotation Xrotation
                        JOINT RightHandThumbEnd
                        {
                          OFFSET -3.183852 4e-06 1e-06
                          CHANNELS 3 Zrotation Yrotation Xrotation
                        }
                      }
                    }
                  }
                  JOINT RightHandIndex1
                  {
                    OFFSET -3.253496 -2.33755 -0.127667
                    CHANNELS 3 Zrotation Yrotation Xrotation
                    JOINT RightHandIndex2
                    {
                      OFFSET -6.344434 0.0 0.0
                      CHANNELS 3 Zrotation Yrotation Xrotation
                      JOINT RightHandIndex3
                      {
                        OFFSET -3.654871 0.0 -8e-06
                        CHANNELS 3 Zrotation Yrotation Xrotation
                        JOINT RightHandIndex4
                        {
                          OFFSET -2.327586 -1e-06 0.0
                          CHANNELS 3 Zrotation Yrotation Xrotation
                          JOINT RightHandIndexEnd
                          {
                            OFFSET -2.770001 3e-06 8e-06
                            CHANNELS 3 Zrotation Yrotation Xrotation
                          }
                        }
                      }
                    }
                  }
                  JOINT RightHandMiddle1
                  {
                    OFFSET -3.168223 -0.944764 0.411762
                    CHANNELS 3 Zrotation Yrotation Xrotation
                    JOINT RightHandMiddle2
                    {
                      OFFSET -6.266691 -1e-06 -4e-06
                      CHANNELS 3 Zrotation Yrotation Xrotation
                      JOINT RightHandMiddle3
                      {
                        OFFSET -4.348901 0.0 0.0
                        CHANNELS 3 Zrotation Yrotation Xrotation
                        JOINT RightHandMiddle4
                        {
                          OFFSET -3.00024 2e-06 -4e-06
                          CHANNELS 3 Zrotation Yrotation Xrotation
                          JOINT RightHandMiddleEnd
                          {
                            OFFSET -2.321477 -4e-06 -4e-06
                            CHANNELS 3 Zrotation Yrotation Xrotation
                          }
                        }
                      }
                    }
                  }
                  JOINT RightHandRing1
                  {
                    OFFSET -2.885654 0.293261 -0.119232
                    CHANNELS 3 Zrotation Yrotation Xrotation
                    JOINT RightHandRing2
                    {
                      OFFSET -6.032835 -1e-06 -4e-06
                      CHANNELS 3 Zrotation Yrotation Xrotation
                      JOINT RightHandRing3
                      {
                        OFFSET -4.33881 0.0 -4e-06
                        CHANNELS 3 Zrotation Yrotation Xrotation
                        JOINT RightHandRing4
                        {
                          OFFSET -2.654903 -4e-06 -4e-06
                          CHANNELS 3 Zrotation Yrotation Xrotation
                          JOINT RightHandRingEnd
                          {
                            OFFSET -1.935122 0.0 4e-06
                            CHANNELS 3 Zrotation Yrotation Xrotation
                          }
                        }
                      }
                    }
                  }
                  JOINT RightHandPinky1
                  {
                    OFFSET -2.866241 1.503904 -0.60527
                    CHANNELS 3 Zrotation Yrotation Xrotation
                    JOINT RightHandPinky2
                    {
                      OFFSET -5.553177 -2e-06 0.0
                      CHANNELS 3 Zrotation Yrotation Xrotation
                      JOINT RightHandPinky3
                      {
                        OFFSET -3.062664 -1e-06 -4e-06
                        CHANNELS 3 Zrotation Yrotation Xrotation
                        JOINT RightHandPinky4
                        {
                          OFFSET -1.546529 2e-06 4e-06
                          CHANNELS 3 Zrotation Yrotation Xrotation
                          JOINT RightHandPinkyEnd
                          {
                            OFFSET -1.952341 0.0 -4e-06
                            CHANNELS 3 Zrotation Yrotation Xrotation
                          }
                        }
                      }
                    }
                  }
                }
              }
            }
          }
        }
      }
    }
    JOINT LeftLeg
    {
      OFFSET -8.443107 2.567604 10.043214
      CHANNELS 3 Zrotation Yrotation Xrotation
      JOINT LeftShin
      {
        OFFSET 43.229198 1e-06 -1e-06
        CHANNELS 3 Zrotation Yrotation Xrotation
        JOINT LeftFoot
        {
          OFFSET 42.298611 1e-06 1e-06
          CHANNELS 3 Zrotation Yrotation Xrotation
          JOINT LeftToeBase
          {
            OFFSET 14.165858 1e-06 0.0
            CHANNELS 3 Zrotation Yrotation Xrotation
            JOINT LeftToeEnd
            {
              OFFSET 6.7141 -0.234461 0.0
              CHANNELS 3 Zrotation Yrotation Xrotation
            }
          }
        }
      }
    }
    JOINT RightLeg
    {
      OFFSET -8.303923 2.592729 -10.047278
      CHANNELS 3 Zrotation Yrotation Xrotation
      JOINT RightShin
      {
        OFFSET -43.369682 0.0 1e-06
        CHANNELS 3 Zrotation Yrotation Xrotation
        JOINT RightFoot
        {
          OFFSET -42.260784 4e-06 2e-06
          CHANNELS 3 Zrotation Yrotation Xrotation
          JOINT RightToeBase
          {
            OFFSET -14.222245 -2e-06 -1e-06
            CHANNELS 3 Zrotation Yrotation Xrotation
            JOINT RightToeEnd
            {
              OFFSET -6.660062 0.232574 -2e-06
              CHANNELS 3 Zrotation Yrotation Xrotation
            }
          }
        }
      }
    }
  }
}
MOTION
Frames: 4
Frame Time: 0.03333333333333333
0.0 0.0 0.0 0.0 -0.0 0.0 15.946156 88.385246 208.160156 90.885941 -1.11716 95.714622 17.362682 -1.063097 -0.113382 -2.609293 -0.854054 -0.220647 34.279411 0.370893 -2.320061 12.435705 -1.375072 2.795429 -2.648548 -0.904139 1.433605 -51.796986 -0.386374 0.860158 6e-06 -0.0 -1e-06 0.033563 0.025987 -0.052458 0.157079 -0.039239 -0.006268 0.120854 0.081551 -0.099456 2.242189 -77.832176 8.796595 75.687263 -21.421953 -71.971825 128.077454 -0.126758 -0.786406 7.572762 9.387144 23.126657 17.636652 -26.322794 52.411301 -19.46673 -14.39563 29.41049 -6e-06 -8.774856 -1e-06 16.229477 -17.950882 6.11942 -0.60978 -1.795658 -3.889334 -4.807091 -11.046839 -2.937861 2e-05 -20.976118 -7e-06 -5.019964 -25.033739 -4.03191 6e-06 2e-06 -3e-06 -10.634548 -5.686976 -3.565594 10.573312 -17.923012 -3.113917 1.7e-05 -13.821279 -2e-06 -0.501724 -31.181761 -4.027041 -12.656818 -60.445419 8.177979 -13.982733 -7.150208 -2.875047 13.772766 -8.401522 -3.218257 0.347771 -34.211739 0.771641 -0.963018 -17.733513 2.621046 -1e-06 -0.0 1e-06 -17.346441 -20.095249 -4.201791 21.75761 -1.63839 3.86643 6e-06 -6.338856 2e-06 -1.69756 -22.591915 -6.19406 1e-06 -6e-06 2e-06 -179.977859 -80.734283 14.84321 85.495918 -44.266701 -61.038445 127.611816 -0.815825 0.334599 10.585215 -4.737498 45.099537 22.182064 -20.375875 49.93335 -16.701843 -16.743563 28.476591 -9e-06 -12.690624 1.5e-05 16.689098 -17.518105 2.532129 -0.105918 -1.513857 -4.275885 -5.039043 -5.612874 -2.953559 1.1e-05 -11.020539 -1.3e-05 -6.111287 -15.895389 -3.840508 -0.0 1e-06 2e-06 -10.283369 -5.680291 -4.341838 11.028304 -11.302402 -2.37265 -1.384259 -14.238598 -6.320148 -0.625395 -26.924267 -3.82765 -5.737674 -50.172211 -2.216662 -13.708526 -7.363479 -3.720936 18.141172 -14.052739 -3.242704 1.3e-05 -18.787292 -1.6e-05 -0.429711 -8.456068 2.555509 -1e-06 0.0 0.0 -15.923543 -20.094486 -5.473582 30.419231 -7.190814 1.735902 5e-06 -8.162931 -5e-06 -1.861873 -22.86153 -6.167988 1e-06 -2e-06 -3e-06 127.786629 -1.688476 2.380445 46.451244 -0.064624 0.97232 -72.9394 -1.810022 -3.288074 -8.290915 1.844707 2.149323 -1.000001 0.0 -0.0 -32.279411 3.011233 -9.859079 59.976822 0.309087 -0.690546 -99.332924 -10.717007 4.502422 -4.648921 0.584634 1.701003 -1.000003 0.0 0.0 
0.0 0.0 0.0 0.0 -0.0 0.0 16.263584 88.051598 210.203079 90.461487 -1.210174 94.882881 17.411612 -0.968765 -0.055031 -2.691975 -0.905238 -0.021939 34.255157 0.413482 -2.216471 12.338564 -1.761971 2.817163 -2.646634 -1.008891 1.595872 -52.170456 -0.30938 0.853497 5e-06 -0.0 1e-06 0.037859 0.023286 -0.04255 0.152726 -0.034071 0.001771 0.125123 0.071662 -0.089596 0.219372 -77.707741 10.854851 75.598885 -21.612923 -72.115997 128.401581 -0.185454 -0.832575 7.16363 9.428302 23.41507 17.636555 -26.322645 52.411091 -19.466686 -14.39558 29.410378 -5e-06 -8.774809 7e-06 16.179726 -18.043371 6.162362 -0.609773 -1.795655 -3.889324 -4.807076 -11.046806 -2.937852 1.9e-05 -20.976021 -2.3e-05 -5.019932 -25.033609 -4.031901 6e-06 -0.0 -3e-06 -10.634514 -5.686967 -3.56558 10.573267 -17.922945 -3.113922 1.3e-05 -13.821218 -1.3e-05 -0.501719 -31.18157 -4.027056 -12.709988 -60.396461 8.25397 -13.982687 -7.150194 -2.875033 13.772708 -8.401489 -3.218258 0.347775 -34.211555 0.771605 -0.963006 -17.733406 2.62101 -1e-06 0.0 1e-06 -17.346384 -20.0952 -4.201777 21.757523 -1.638374 3.866402 6e-06 -6.338821 -7e-06 -1.697543 -22.591789 -6.194049 -1e-06 -5e-06 -1e-06 -179.812897 -80.394875 15.014727 85.079163 -44.578812 -60.311268 127.390778 -0.477787 0.29745 10.432933 -4.871364 45.580791 22.182241 -20.376047 49.933533 -16.70191 -16.74362 28.476685 -2.7e-05 -12.690686 -3e-06 16.738493 -17.512833 2.505043 -0.105923 -1.51386 -4.275899 -5.039059 -5.612889 -2.953572 2.7e-05 -11.020601 7e-06 -6.111311 -15.895473 -3.840502 1e-06 -1e-06 1e-06 -10.283413 -5.680295 -4.341859 11.028369 -11.302477 -2.372639 -1.384252 -14.238667 -6.320161 -0.6254 -26.924461 -3.827597 -5.63183 -50.219334 -2.282833 -13.708575 -7.363483 -3.720959 18.141266 -14.052835 -3.242689 3.4e-05 -18.787409 2.7e-05 -0.429708 -8.456137 2.555553 2e-06 0.0 1e-06 -15.923586 -20.094532 -5.473613 30.419365 -7.190905 1.735932 1.4e-05 -8.162985 1.3e-05 -1.861885 -22.861691 -6.167962 0.0 -3e-06 3e-06 128.754959 -1.769925 1.316981 36.898148 0.132803 0.965768 -71.789246 -1.038174 -4.045196 -8.470682 1.79728 2.097612 -0.999998 0.0 -0.0 -31.19849 3.535337 -9.901765 60.788227 0.296441 -0.668126 -101.344627 -10.185712 4.407547 -4.714339 0.55995 1.697952 -1.000003 1e-06 -0.0 
0.0 0.0 0.0 0.0 -0.0 0.0 16.630892 87.674507 212.345795 89.9338 -1.321783 94.049553 17.426813 -0.865531 0.011989 -2.792779 -0.942929 0.129084 34.184013 0.486559 -2.055505 12.201551 -2.07393 2.833051 -2.641762 -1.091506 1.803658 -52.434032 -0.238931 0.909905 6e-06 0.0 -1e-06 0.048641 0.023411 -0.044611 0.145805 -0.025132 -0.009815 0.127429 0.063545 -0.084498 -1.423954 -77.593201 12.575578 75.333153 -21.778732 -72.211594 128.714615 -0.26297 -0.860586 6.85287 9.484649 23.510859 17.636566 -26.32234 52.410908 -19.466599 -14.39551 29.410259 9e-06 -8.774799 -1.3e-05 16.194092 -18.154436 6.163562 -0.609778 -1.795649 -3.889311 -4.807088 -11.046747 -2.937864 1.4e-05 -20.975878 -7e-05 -5.019896 -25.033445 -4.031988 6e-06 0.0 -5e-06 -10.634514 -5.68696 -3.565579 10.573232 -17.922815 -3.113924 1.1e-05 -13.821115 -4.3e-05 -0.501683 -31.18133 -4.027137 -12.771173 -60.382931 8.345251 -13.982688 -7.150182 -2.875036 13.772687 -8.401424 -3.218239 0.34779 -34.2113 0.771525 -0.962976 -17.73328 2.620961 -0.0 -0.0 -1e-06 -17.34639 -20.095133 -4.2018 21.757504 -1.638349 3.866433 4e-06 -6.338776 -1.8e-05 -1.697548 -22.591625 -6.194088 -0.0 -5e-06 -2e-06 -179.846039 -80.161026 15.258819 84.662346 -44.920063 -59.452045 127.080093 -0.110187 0.26998 10.415123 -5.063518 45.885036 22.18199 -20.375538 49.932968 -16.701714 -16.743355 28.476288 -1.1e-05 -12.690488 -1.5e-05 16.819944 -17.47501 2.461147 -0.105919 -1.513854 -4.275854 -5.039006 -5.61282 -2.95355 2.1e-05 -11.020396 -4.2e-05 -6.111196 -15.895155 -3.84051 0.0 -3e-06 -1e-06 -10.283316 -5.680254 -4.341822 11.028218 -11.302293 -2.372631 -1.384238 -14.238421 -6.320114 -0.625307 -26.923853 -3.827667 -5.439662 -50.302593 -2.377905 -13.708446 -7.363429 -3.720934 18.141027 -14.052599 -3.242668 5.9e-05 -18.787031 -6.2e-05 -0.429674 -8.455932 2.555461 0.0 -1e-06 -1e-06 -15.923429 -20.094339 -5.473598 30.418993 -7.190778 1.735929 2e-05 -8.162814 -1.7e-05 -1.861797 -22.861134 -6.167952 -0.0 -2e-06 4e-06 129.935135 -1.91918 0.278847 29.088749 0.289698 0.900647 -71.303848 -0.875708 -4.912519 -8.67976 1.75099 2.059898 -1.000002 0.0 0.0 -30.064369 4.048833 -10.023846 61.638584 0.305248 -0.678308 -103.325577 -9.518568 4.215549 -4.788741 0.528922 1.692442 -1.000003 0.0 -0.0 
0.0 0.0 0.0 0.0 -0.0 0.0 17.016653 87.275192 214.587952 89.399315 -1.543157 93.219414 17.368374 -0.801105 0.062038 -2.884931 -0.96563 0.222213 34.056862 0.508634 -1.861909 11.971116 -2.251683 2.851839 -2.63169 -1.133943 2.017131 -52.636604 -0.150228 1.030069 7e-06 -0.0 -0.0 0.067887 0.024305 -0.051481 0.136509 -0.017649 -0.031262 0.126918 0.058349 -0.079075 -2.540281 -77.498978 13.781672 74.905098 -21.854561 -72.258781 128.973663 -0.341246 -0.839219 6.754789 9.548504 23.442175 17.636593 -26.322752 52.411049 -19.466505 -14.395565 29.410246 7e-06 -8.774788 -3e-06 16.255938 -18.250116 6.153943 -0.60978 -1.795641 -3.889314 -4.807075 -11.046765 -2.937819 -2.8e-05 -20.975935 5.6e-05 -5.020006 -25.033464 -4.031812 7e-06 -1e-06 -3e-06 -10.634501 -5.686947 -3.565571 10.573215 -17.922876 -3.113846 -1.5e-05 -13.821157 3.4e-05 -0.501854 -31.181402 -4.02691 -12.767222 -60.364693 8.39171 -13.982669 -7.150167 -2.875028 13.772671 -8.401446 -3.218209 0.34766 -34.211418 0.771757 -0.963072 -17.733337 2.621059 -2e-06 -1e-06 -2e-06 -17.346371 -20.095129 -4.201747 21.757479 -1.638361 3.86642 -1e-06 -6.338805 1.6e-05 -1.697622 -22.591679 -6.193935 0.0 -4e-06 -1e-06 179.823624 -80.057266 15.642721 84.240013 -45.246414 -58.606384 126.701553 0.172199 0.281426 10.57648 -5.243149 46.013321 22.182058 -20.375914 49.933266 -16.701752 -16.743544 28.476498 6e-06 -12.690599 7e-06 16.891972 -17.418121 2.416016 -0.105918 -1.513847 -4.275878 -5.03904 -5.612866 -2.953543 -1e-06 -11.02052 1e-05 -6.111315 -15.895348 -3.840459 1e-06 -1e-06 3e-06 -10.283359 -5.68028 -4.341822 11.028277 -11.302376 -2.372625 -1.38428 -14.238572 -6.32011 -0.625458 -26.924221 -3.827589 -5.232838 -50.404861 -2.467947 -13.708511 -7.36347 -3.720922 18.141119 -14.052701 -3.242663 -2e-05 -18.78727 2.3e-05 -0.429725 -8.456062 2.555516 -1e-06 -1e-06 1e-06 -15.923534 -20.094452 -5.473552 30.419188 -7.190782 1.735924 -9e-06 -8.162925 9e-06 -1.861934 -22.861511 -6.167929 -0.0 -3e-06 1e-06 130.874329 -2.132611 -0.61639 23.964615 0.362705 0.78454 -71.076462 -1.419568 -5.291219 -8.879446 1.7373 2.031199 -0.999999 0.0 0.0 -28.966764 4.461404 -10.171426 62.505123 0.325861 -0.693913 -105.233147 -8.872996 3.920271 -4.942526 0.512091 1.685484 -1.000003 1e-06 -0.0 
